<svg id="svg" version="1.1" xmlns="http://www.w3.org/2000/svg" xmlns:xlink="http://www.w3.org/1999/xlink" width="400" height="171.42857142857142" viewBox="0, 0, 400,171.42857142857142"><g id="svgg"><path id="path0" d="M179.804 17.997 C 177.705 18.630,176.522 21.271,176.718 24.890 C 176.909 28.446,177.630 30.682,180.503 36.633 C 183.103 42.019,183.164 42.107,183.960 41.660 C 184.460 41.380,184.391 41.833,185.172 33.750 C 186.120 23.942,183.694 16.823,179.804 17.997 M181.247 19.764 C 183.239 21.069,184.078 26.825,183.415 34.644 L 183.116 38.162 182.405 36.706 C 182.014 35.905,181.422 34.650,181.091 33.917 C 180.760 33.183,180.408 32.440,180.309 32.264 C 179.444 30.727,178.329 26.107,178.337 24.096 C 178.349 21.123,179.869 18.861,181.247 19.764 M214.113 20.408 C 212.148 21.243,210.914 22.780,209.358 26.333 C 208.793 27.624,208.192 30.007,207.928 32.000 C 207.283 36.883,207.170 37.842,207.082 39.167 C 207.030 39.946,206.949 40.893,206.903 41.272 C 206.757 42.463,207.769 42.962,208.462 42.042 C 210.042 39.946,212.246 37.068,212.323 37.000 C 213.455 36.008,216.824 30.515,217.587 28.417 C 217.754 27.958,217.943 27.508,218.006 27.417 C 218.640 26.499,218.941 22.492,218.447 21.550 C 217.683 20.095,215.934 19.634,214.113 20.408 M216.493 21.830 C 217.491 22.364,217.181 25.376,215.829 28.278 C 215.538 28.904,215.232 29.567,215.150 29.750 C 215.068 29.933,214.907 30.231,214.792 30.411 C 214.677 30.591,214.286 31.228,213.923 31.827 C 213.368 32.744,210.628 36.568,210.337 36.833 C 210.287 36.879,209.951 37.309,209.591 37.788 C 208.753 38.905,208.773 38.976,209.081 35.978 C 209.720 29.753,210.851 26.043,212.891 23.481 C 213.982 22.110,215.617 21.361,216.493 21.830 M151.101 35.665 C 149.879 36.051,148.864 38.034,149.079 39.616 C 149.604 43.491,152.875 47.159,159.688 51.514 C 161.005 52.356,162.471 53.298,162.945 53.606 C 163.419 53.914,163.857 54.167,163.919 54.167 C 163.980 54.167,164.221 54.317,164.455 54.500 C 165.828 55.580,166.473 54.526,165.572 52.675 C 161.072 43.428,159.757 41.225,157.118 38.516 C 154.849 36.186,152.690 35.163,151.101 35.665 M153.296 37.625 C 154.921 38.441,157.127 40.748,158.911 43.500 C 159.350 44.176,161.500 47.994,161.500 48.096 C 161.500 48.119,161.867 48.913,162.316 49.861 C 163.302 51.940,163.347 51.873,161.690 50.797 C 160.944 50.313,159.640 49.467,158.792 48.917 C 152.624 44.917,149.232 39.625,151.427 37.430 C 151.802 37.055,152.254 37.102,153.296 37.625 M244.694 40.503 C 241.556 41.159,238.335 44.915,235.762 50.917 C 235.330 51.925,234.877 52.975,234.755 53.250 C 234.491 53.845,232.671 58.621,232.546 59.047 C 232.443 59.395,232.934 60.000,233.317 59.999 C 234.051 59.997,242.376 53.525,244.757 51.106 C 247.372 48.448,249.167 45.256,249.167 43.261 C 249.167 41.182,247.212 39.977,244.694 40.503 M247.081 42.361 C 248.718 43.649,245.265 48.871,240.000 53.069 C 237.440 55.110,235.495 56.550,235.410 56.466 C 235.236 56.292,238.059 49.634,238.963 48.083 C 241.527 43.689,245.346 40.996,247.081 42.361 M131.293 70.393 C 126.726 72.103,129.630 77.400,136.000 78.978 C 139.649 79.881,151.905 79.757,152.522 78.809 C 152.735 78.483,152.625 77.806,152.333 77.648 C 152.196 77.573,150.546 76.674,148.667 75.650 C 144.555 73.410,142.318 72.297,140.943 71.808 C 140.378 71.608,139.842 71.391,139.750 71.326 C 138.646 70.547,132.649 69.885,131.293 70.393 M136.020 72.078 C 138.839 72.573,141.766 73.784,146.715 76.503 L 148.681 77.583 147.965 77.713 C 146.667 77.950,139.530 77.933,138.083 77.690 C 133.801 76.972,130.823 75.098,130.836 73.130 C 130.844 71.937,132.869 71.526,136.020 72.078 M260.583 82.336 C 257.237 82.696,247.095 85.792,246.543 86.623 C 246.071 87.334,246.468 87.689,248.181 88.087 C 249.044 88.288,250.762 88.695,252.000 88.991 C 258.288 90.496,262.412 90.968,265.094 90.490 C 269.040 89.788,270.505 88.813,270.496 86.897 C 270.482 83.631,266.325 81.718,260.583 82.336 M265.792 84.251 C 268.170 84.811,269.582 86.594,268.458 87.617 C 266.385 89.504,260.272 89.380,252.046 87.283 C 250.670 86.931,250.144 86.500,251.093 86.500 C 251.200 86.500,252.066 86.247,253.018 85.938 C 256.226 84.897,257.606 84.507,258.931 84.268 C 260.716 83.946,264.459 83.936,265.792 84.251 M149.333 104.089 C 137.782 104.959,131.667 107.380,131.667 111.085 C 131.667 115.419,139.635 115.617,145.716 111.435 C 146.064 111.196,146.386 111.000,146.432 111.000 C 146.514 111.000,148.500 109.667,148.667 109.500 C 148.712 109.454,149.125 109.158,149.583 108.841 C 153.447 106.173,154.684 105.111,154.633 104.506 L 154.583 103.917 153.417 103.893 C 152.775 103.880,150.938 103.968,149.333 104.089 M150.316 106.220 C 142.825 111.877,137.525 113.941,134.417 112.411 C 131.900 111.173,133.822 109.048,139.075 107.262 C 140.978 106.615,146.035 105.927,150.649 105.687 C 150.994 105.669,150.949 105.741,150.316 106.220 M239.095 115.595 C 238.707 115.983,238.776 116.536,239.302 117.267 C 239.559 117.624,240.435 118.892,241.248 120.083 C 244.838 125.344,246.726 127.709,248.769 129.507 C 253.692 133.838,257.744 133.760,257.749 129.333 C 257.753 124.888,253.157 121.085,242.049 116.344 C 239.413 115.219,239.460 115.231,239.095 115.595 M245.833 119.909 C 248.274 121.038,250.765 122.364,251.000 122.661 C 251.046 122.719,251.346 122.946,251.667 123.166 C 257.082 126.876,257.876 133.153,252.551 130.157 C 249.786 128.602,247.101 125.720,243.601 120.550 C 242.084 118.309,242.027 118.195,242.541 118.411 C 242.839 118.536,244.321 119.210,245.833 119.909 M174.479 127.125 C 168.519 133.169,166.475 135.922,165.169 139.667 C 163.323 144.961,168.126 147.169,172.181 142.890 C 174.925 139.994,176.217 136.768,178.397 127.371 C 179.047 124.569,178.956 123.833,177.957 123.833 C 177.830 123.833,176.264 125.315,174.479 127.125 M176.140 129.583 C 174.140 137.862,172.247 141.510,169.131 143.099 C 164.858 145.277,165.937 139.343,170.906 133.333 C 171.575 132.525,176.533 127.472,176.589 127.541 C 176.608 127.564,176.406 128.483,176.140 129.583 M207.602 129.716 C 207.096 130.086,206.777 140.948,207.171 144.388 C 207.998 151.602,211.495 155.280,214.522 152.118 C 217.705 148.794,216.023 141.838,209.354 130.750 C 208.551 129.414,208.254 129.239,207.602 129.716 M211.508 138.167 C 214.584 144.232,215.226 149.062,213.222 151.066 C 210.417 153.871,208.084 145.413,208.777 134.950 L 208.885 133.317 209.710 134.783 C 210.164 135.590,210.973 137.112,211.508 138.167 " stroke="none" fill="#cc641c" fill-rule="evenodd"></path><path id="path1" d="M197.693 50.352 C 195.229 50.638,189.802 51.987,189.083 52.492 C 188.992 52.557,188.546 52.746,188.093 52.914 C 187.116 53.276,183.863 54.938,183.487 55.269 C 183.342 55.396,183.169 55.500,183.102 55.500 C 182.550 55.500,176.575 59.836,174.219 61.947 C 170.746 65.059,165.849 72.324,164.748 76.000 C 164.679 76.229,164.488 76.717,164.322 77.083 C 161.828 82.614,161.801 91.186,164.262 96.609 C 164.393 96.897,164.500 97.183,164.500 97.244 C 164.500 97.729,166.847 102.055,167.985 103.667 C 172.737 110.397,178.153 114.876,185.167 117.877 C 191.634 120.645,203.051 120.587,209.730 117.754 C 210.016 117.632,210.775 117.326,211.417 117.073 C 223.628 112.265,232.894 103.236,235.269 93.833 C 235.488 92.962,235.754 91.912,235.859 91.500 C 236.123 90.460,236.240 84.517,236.024 83.083 C 234.747 74.599,229.984 66.686,223.832 62.826 C 223.327 62.509,222.764 62.157,222.582 62.043 C 222.399 61.930,221.762 61.605,221.167 61.322 C 203.900 53.122,180.000 66.520,180.000 84.399 C 180.000 88.677,181.693 93.823,184.474 98.000 C 185.336 99.296,188.975 103.167,189.330 103.167 C 189.410 103.167,189.686 103.343,189.946 103.559 C 196.211 108.772,208.494 108.250,214.566 102.512 C 216.280 100.892,218.667 97.174,218.667 96.123 C 218.667 95.974,218.734 95.812,218.816 95.761 C 219.699 95.215,219.718 87.032,218.841 85.083 C 218.758 84.900,218.562 84.337,218.405 83.833 C 216.452 77.568,211.151 73.902,205.136 74.658 C 197.939 75.563,192.834 82.931,196.674 86.873 C 197.448 87.668,197.512 87.700,197.862 87.467 C 198.430 87.090,198.408 86.907,197.701 86.133 C 193.969 82.044,200.987 74.937,207.875 75.832 C 211.397 76.289,215.175 79.065,216.316 82.035 C 216.397 82.245,216.652 82.829,216.884 83.333 C 220.929 92.147,216.580 102.377,207.667 105.014 C 207.071 105.191,206.358 105.405,206.083 105.491 C 195.771 108.710,183.386 99.741,181.586 87.750 C 180.369 79.647,184.393 70.933,191.540 66.195 C 191.771 66.042,192.400 65.624,192.938 65.266 C 201.419 59.628,212.211 58.474,220.376 62.332 C 224.482 64.273,227.900 67.426,230.569 71.735 C 238.374 84.341,235.705 99.145,224.001 108.167 C 223.704 108.396,223.263 108.742,223.022 108.936 C 222.313 109.505,220.007 111.086,218.167 112.263 C 216.864 113.097,212.224 115.500,211.917 115.500 C 211.869 115.500,211.512 115.647,211.123 115.827 C 206.636 117.902,199.646 119.097,194.472 118.672 C 188.416 118.175,184.260 116.613,178.333 112.606 C 171.277 107.836,165.081 98.287,163.824 90.250 C 162.759 83.431,165.531 74.672,171.122 67.199 C 174.695 62.422,182.812 56.348,188.750 54.006 C 189.300 53.790,189.825 53.559,189.917 53.494 C 190.231 53.272,194.249 52.182,195.750 51.911 C 200.114 51.126,204.359 51.128,209.053 51.918 C 210.942 52.236,211.210 52.188,211.136 51.543 C 211.017 50.506,202.708 49.770,197.693 50.352 " stroke="none" fill="#94c424" fill-rule="evenodd"></path><path id="path2" d="M188.623 56.766 C 188.568 56.821,188.558 56.958,188.601 57.070 C 188.644 57.182,188.891 58.529,189.149 60.063 C 189.705 63.370,189.711 63.380,190.777 62.653 C 192.665 61.364,194.500 59.943,194.500 59.769 C 194.500 59.559,189.338 56.667,188.963 56.667 C 188.830 56.667,188.677 56.711,188.623 56.766 M192.958 59.457 C 193.637 59.797,193.634 59.826,192.874 60.333 C 192.531 60.563,191.826 61.069,191.307 61.458 C 190.135 62.339,190.240 62.373,190.010 61.042 C 189.903 60.423,189.748 59.617,189.664 59.250 C 189.581 58.883,189.466 58.337,189.408 58.035 L 189.304 57.487 190.860 58.336 C 191.716 58.803,192.660 59.307,192.958 59.457 M209.167 65.744 C 208.387 66.976,207.356 68.604,206.873 69.362 C 205.779 71.083,205.759 71.043,207.847 71.284 C 208.802 71.394,210.483 71.593,211.583 71.727 C 214.110 72.034,214.091 72.058,213.164 69.750 C 213.090 69.567,212.681 68.367,212.255 67.083 C 211.828 65.800,211.416 64.600,211.338 64.417 C 211.260 64.233,211.155 63.952,211.104 63.792 C 210.913 63.194,210.548 63.562,209.167 65.744 M178.225 64.422 C 178.116 64.707,180.529 70.204,180.804 70.296 C 180.992 70.358,181.279 70.086,182.105 69.063 C 182.392 68.708,183.049 67.916,183.564 67.304 C 184.870 65.752,184.884 65.777,182.333 65.158 C 181.554 64.968,180.354 64.671,179.667 64.496 C 178.979 64.321,178.396 64.175,178.370 64.172 C 178.344 64.169,178.279 64.281,178.225 64.422 M211.271 66.333 C 212.127 68.387,212.947 71.167,212.698 71.170 C 211.866 71.179,207.000 70.581,207.000 70.469 C 207.000 70.397,207.498 69.568,208.106 68.627 C 208.715 67.686,209.424 66.579,209.682 66.167 C 209.940 65.754,210.284 65.231,210.445 65.005 L 210.738 64.593 210.952 65.338 C 211.070 65.748,211.213 66.196,211.271 66.333 M180.750 65.424 C 182.049 65.721,183.500 66.169,183.500 66.273 C 183.500 66.310,182.928 67.020,182.228 67.849 L 180.956 69.357 180.309 67.887 C 179.758 66.636,179.347 65.743,179.030 65.107 C 178.990 65.029,179.099 65.008,179.271 65.061 C 179.443 65.114,180.108 65.277,180.750 65.424 M194.939 67.630 C 194.895 67.701,194.967 68.245,195.099 68.838 C 195.232 69.431,195.521 70.779,195.743 71.833 C 196.602 75.915,196.449 75.737,198.020 74.491 C 198.605 74.027,199.247 73.521,199.448 73.366 C 201.732 71.599,202.167 71.229,202.167 71.053 C 202.167 70.854,195.607 67.500,195.217 67.500 C 195.108 67.500,194.984 67.558,194.939 67.630 M200.699 71.500 C 200.443 71.729,199.982 72.104,199.674 72.333 C 199.366 72.563,198.666 73.106,198.119 73.542 C 196.858 74.545,196.949 74.586,196.608 72.875 C 196.448 72.073,196.289 71.304,196.254 71.167 C 196.157 70.783,195.667 68.487,195.667 68.415 C 195.667 68.380,196.903 68.966,198.415 69.717 L 201.163 71.083 200.699 71.500 M221.606 71.922 C 217.115 72.393,217.297 72.253,218.585 74.250 C 218.880 74.708,219.668 75.967,220.335 77.047 C 221.003 78.127,221.608 79.047,221.681 79.092 C 221.883 79.217,222.381 78.506,224.495 75.083 C 224.891 74.442,225.352 73.716,225.520 73.470 C 225.988 72.786,226.500 71.842,226.500 71.662 C 226.500 71.442,225.849 71.477,221.606 71.922 M225.500 72.245 C 225.500 72.288,225.212 72.756,224.860 73.286 C 224.261 74.188,223.343 75.647,222.345 77.286 C 221.806 78.169,221.777 78.167,221.222 77.208 C 220.969 76.773,220.703 76.392,220.631 76.361 C 220.559 76.331,220.500 76.231,220.500 76.139 C 220.500 75.985,219.838 74.899,218.891 73.500 L 218.496 72.917 220.456 72.699 C 221.535 72.580,222.867 72.422,223.417 72.347 C 224.637 72.182,225.500 72.140,225.500 72.245 M174.083 75.599 C 169.825 76.023,170.333 75.930,170.336 76.292 C 170.339 76.718,175.613 81.954,175.825 81.741 C 175.918 81.649,176.297 80.713,176.667 79.661 C 177.038 78.610,177.414 77.600,177.503 77.417 C 177.707 76.995,178.167 75.667,178.167 75.497 C 178.167 75.231,177.652 75.244,174.083 75.599 M177.261 76.116 C 177.201 76.271,177.031 76.778,176.884 77.241 C 176.736 77.704,176.562 78.158,176.497 78.250 C 176.431 78.342,176.208 78.942,176.000 79.583 C 175.792 80.225,175.596 80.779,175.566 80.814 C 175.535 80.850,174.578 79.912,173.438 78.731 C 172.298 77.550,171.377 76.571,171.391 76.555 C 171.418 76.526,175.576 76.021,177.143 75.857 C 177.290 75.842,177.331 75.932,177.261 76.116 M192.291 77.931 C 192.237 77.985,191.381 78.243,190.388 78.503 C 189.395 78.763,188.133 79.099,187.583 79.249 C 187.033 79.398,186.302 79.594,185.958 79.684 C 184.993 79.935,185.165 80.171,187.625 81.972 C 188.885 82.895,189.992 83.710,190.083 83.783 C 191.989 85.308,191.772 85.617,192.803 79.908 C 193.150 77.986,192.962 77.261,192.291 77.931 M192.333 78.792 C 192.331 79.105,191.498 83.535,191.416 83.667 C 191.306 83.846,190.295 83.168,187.365 80.948 L 186.481 80.278 187.115 80.067 C 187.464 79.952,188.463 79.666,189.333 79.432 C 190.204 79.199,191.142 78.937,191.417 78.851 C 192.054 78.652,192.334 78.634,192.333 78.792 M223.229 83.744 C 223.178 83.877,223.224 84.871,223.332 85.952 C 223.440 87.032,223.591 88.554,223.669 89.333 C 223.746 90.112,223.815 90.769,223.821 90.792 C 223.901 91.071,229.865 87.757,230.871 86.874 C 231.261 86.532,231.144 86.407,230.123 86.074 C 229.643 85.917,229.175 85.737,229.083 85.673 C 228.992 85.610,228.542 85.424,228.083 85.261 C 226.740 84.783,224.626 83.979,224.058 83.730 C 223.402 83.443,223.345 83.444,223.229 83.744 M225.083 84.833 C 225.414 84.991,226.908 85.552,228.667 86.177 C 229.171 86.357,229.695 86.545,229.831 86.595 C 229.999 86.657,229.810 86.842,229.248 87.166 C 228.791 87.429,228.079 87.839,227.667 88.076 C 227.254 88.314,226.363 88.846,225.686 89.259 C 224.212 90.158,224.344 90.255,224.161 88.141 C 224.079 87.193,223.970 85.949,223.918 85.377 L 223.825 84.338 224.287 84.506 C 224.542 84.598,224.900 84.745,225.083 84.833 M175.083 87.924 C 174.900 88.063,174.525 88.356,174.250 88.574 C 173.629 89.067,172.912 89.615,171.078 91.000 C 168.930 92.623,168.561 92.962,168.751 93.141 C 168.983 93.360,177.307 95.415,177.437 95.285 C 177.528 95.194,177.313 93.993,176.267 88.750 C 176.049 87.658,175.728 87.433,175.083 87.924 M176.424 92.750 C 176.565 93.392,176.714 94.075,176.754 94.269 C 176.827 94.614,176.809 94.617,175.956 94.403 C 171.273 93.229,170.223 92.954,170.055 92.860 C 169.938 92.794,170.398 92.350,171.204 91.750 C 171.944 91.200,172.829 90.525,173.172 90.250 C 173.514 89.975,174.005 89.600,174.263 89.417 C 174.521 89.233,174.922 88.922,175.156 88.724 L 175.580 88.365 175.873 89.974 C 176.035 90.859,176.282 92.108,176.424 92.750 M190.433 91.208 C 189.082 97.085,189.134 96.733,189.605 96.801 C 189.800 96.828,190.887 96.389,192.021 95.824 C 193.155 95.259,194.627 94.527,195.292 94.198 C 196.453 93.622,196.825 93.160,196.291 92.955 C 196.175 92.911,195.291 92.247,194.326 91.479 C 190.678 88.577,191.032 88.602,190.433 91.208 M202.531 91.563 C 201.231 92.881,200.167 94.033,200.167 94.124 C 200.167 94.214,200.935 94.553,201.875 94.877 C 207.846 96.935,207.926 96.953,207.783 96.208 C 207.684 95.695,205.954 90.874,205.577 90.058 C 205.443 89.769,205.333 89.451,205.333 89.350 C 205.333 88.863,204.708 89.357,202.531 91.563 M194.500 92.466 C 195.004 92.871,195.431 93.251,195.449 93.310 C 195.480 93.409,191.918 95.203,190.585 95.760 C 190.000 96.004,189.993 96.002,190.080 95.629 C 190.128 95.421,190.280 94.744,190.417 94.125 C 190.554 93.506,190.779 92.494,190.916 91.875 C 191.053 91.256,191.205 90.581,191.253 90.374 C 191.347 89.970,191.611 90.140,194.500 92.466 M205.732 92.343 C 206.139 93.483,206.595 94.706,206.746 95.060 C 207.130 95.963,207.170 95.965,203.998 94.911 L 201.135 93.960 201.943 93.132 C 203.823 91.204,204.889 90.167,204.938 90.216 C 204.968 90.245,205.325 91.202,205.732 92.343 M221.918 97.708 C 221.470 98.465,220.848 99.508,220.537 100.028 C 219.706 101.413,219.790 101.559,221.502 101.698 C 222.280 101.761,223.704 101.884,224.667 101.970 C 226.481 102.132,226.667 102.114,226.666 101.782 C 226.665 101.623,225.092 99.123,224.547 98.414 C 224.475 98.321,224.126 97.814,223.771 97.289 C 222.942 96.061,222.887 96.073,221.918 97.708 M224.473 99.500 C 225.114 100.462,225.613 101.276,225.581 101.307 C 225.479 101.410,221.209 101.129,221.011 101.007 C 220.839 100.901,221.543 99.508,222.675 97.711 C 222.970 97.244,222.974 97.248,224.473 99.500 M180.251 100.665 C 179.921 101.199,177.848 107.915,177.975 108.041 C 178.107 108.173,181.472 107.073,182.917 106.425 C 183.192 106.302,183.848 106.067,184.375 105.903 C 185.707 105.490,185.668 105.403,182.965 102.792 C 180.562 100.471,180.433 100.370,180.251 100.665 M184.333 105.110 C 184.333 105.285,179.003 107.225,178.874 107.097 C 178.800 107.022,179.067 106.039,179.331 105.417 C 179.409 105.233,179.660 104.483,179.889 103.750 C 180.118 103.017,180.388 102.200,180.490 101.936 L 180.675 101.455 182.504 103.262 C 183.510 104.255,184.333 105.087,184.333 105.110 M213.417 106.409 C 211.032 107.487,210.898 107.630,211.671 108.276 C 211.983 108.537,212.804 109.223,213.494 109.802 C 214.185 110.381,214.890 110.969,215.061 111.108 C 215.572 111.527,215.647 111.206,215.699 108.350 C 215.759 105.107,215.946 105.266,213.417 106.409 M215.133 109.320 L 215.083 110.307 213.546 109.005 C 212.372 108.010,212.077 107.681,212.296 107.610 C 212.454 107.559,213.146 107.265,213.833 106.957 L 215.083 106.397 215.133 107.365 C 215.160 107.898,215.160 108.777,215.133 109.320 M189.269 108.470 C 189.222 108.545,189.293 109.276,189.426 110.095 C 189.713 111.858,190.320 115.863,190.328 116.042 C 190.345 116.425,190.952 116.034,191.872 115.046 C 195.728 110.909,195.998 110.609,195.999 110.468 C 196.001 110.278,195.720 110.160,194.456 109.818 C 193.793 109.639,193.100 109.421,192.917 109.334 C 192.006 108.904,189.385 108.282,189.269 108.470 M190.781 109.351 C 191.039 109.452,191.850 109.704,192.583 109.911 C 193.317 110.119,194.158 110.392,194.454 110.519 L 194.991 110.750 193.871 111.940 C 193.254 112.594,192.328 113.582,191.811 114.135 L 190.873 115.139 190.761 114.528 C 190.542 113.321,190.008 109.744,190.004 109.458 C 189.999 109.118,190.139 109.099,190.781 109.351 M203.660 110.077 C 200.743 110.348,200.833 110.232,202.022 112.181 C 202.493 112.952,203.011 113.817,203.173 114.102 C 204.203 115.911,204.211 115.905,205.432 112.583 C 206.053 110.895,206.220 109.975,205.917 109.915 C 205.825 109.897,204.809 109.970,203.660 110.077 M205.332 110.708 C 205.327 110.823,204.804 112.370,204.463 113.278 L 204.077 114.305 203.054 112.611 L 202.031 110.917 202.890 110.819 C 203.840 110.711,205.334 110.643,205.332 110.708 " stroke="none" fill="#6c3c14" fill-rule="evenodd"></path><path id="path3" d="M188.461 45.153 C 187.298 46.192,188.044 48.167,189.599 48.167 C 190.487 48.167,191.167 47.427,191.167 46.461 C 191.167 44.894,189.599 44.136,188.461 45.153 M205.167 45.333 C 204.739 45.761,204.742 46.339,205.173 46.802 C 205.875 47.555,207.000 47.085,207.000 46.038 C 207.000 45.108,205.838 44.662,205.167 45.333 M190.219 45.358 C 191.216 45.883,190.970 47.418,189.842 47.713 C 189.366 47.837,188.511 47.385,188.332 46.913 C 187.880 45.724,189.063 44.750,190.219 45.358 M206.375 45.565 C 207.070 46.093,206.319 47.081,205.588 46.601 C 205.068 46.261,205.052 45.933,205.537 45.593 C 205.979 45.283,206.002 45.282,206.375 45.565 M177.204 50.759 C 176.737 51.087,176.700 51.995,177.138 52.391 C 177.830 53.017,178.833 52.522,178.833 51.554 C 178.833 50.646,177.968 50.224,177.204 50.759 M178.468 51.530 C 178.534 52.095,178.010 52.439,177.500 52.167 C 177.176 51.993,177.045 51.344,177.286 51.103 C 177.600 50.789,178.417 51.084,178.468 51.530 M224.345 55.439 C 223.635 56.343,224.189 57.500,225.333 57.500 C 225.829 57.500,226.055 57.400,226.321 57.061 C 227.032 56.157,226.477 55.000,225.333 55.000 C 224.838 55.000,224.612 55.100,224.345 55.439 M225.862 55.609 C 226.398 56.094,226.052 57.167,225.360 57.167 C 225.069 57.167,224.333 56.527,224.333 56.273 C 224.333 55.610,225.367 55.161,225.862 55.609 M166.671 57.996 C 166.267 58.399,166.096 59.028,166.236 59.588 C 166.655 61.258,169.333 60.894,169.333 59.167 C 169.333 57.928,167.531 57.135,166.671 57.996 M168.574 58.370 C 169.167 59.217,168.700 60.333,167.753 60.333 C 167.151 60.333,166.500 59.727,166.500 59.167 C 166.500 58.174,168.026 57.588,168.574 58.370 M233.317 64.018 C 232.731 64.645,232.708 65.091,233.228 65.742 C 234.034 66.749,235.567 66.196,235.567 64.899 C 235.567 63.625,234.188 63.085,233.317 64.018 M235.204 64.623 C 235.438 65.712,234.016 66.380,233.503 65.422 C 233.025 64.528,233.815 63.654,234.696 64.102 C 234.941 64.227,235.170 64.461,235.204 64.623 M157.535 72.269 C 155.269 73.424,155.935 76.782,158.467 76.965 C 160.298 77.098,161.264 76.128,161.131 74.291 C 161.001 72.485,159.151 71.444,157.535 72.269 M237.698 72.550 C 236.671 73.643,237.291 75.150,238.773 75.161 C 239.683 75.168,240.162 74.769,240.278 73.907 C 240.471 72.468,238.667 71.519,237.698 72.550 M159.683 72.652 C 160.951 73.424,161.227 74.909,160.292 75.929 C 159.343 76.964,157.818 76.896,156.982 75.781 C 155.643 73.995,157.793 71.503,159.683 72.652 M239.339 72.753 C 240.451 73.328,240.005 74.825,238.720 74.831 C 237.615 74.836,237.170 73.641,238.013 72.931 C 238.611 72.428,238.690 72.417,239.339 72.753 M240.500 81.500 C 240.001 81.999,240.044 83.048,240.577 83.397 C 241.526 84.019,242.667 83.484,242.667 82.417 C 242.667 81.316,241.273 80.727,240.500 81.500 M242.111 81.936 C 242.676 82.798,241.581 83.760,240.820 83.071 C 240.432 82.720,240.414 82.363,240.759 81.870 C 241.116 81.361,241.755 81.392,242.111 81.936 M155.503 90.297 C 154.997 90.707,154.973 91.713,155.458 92.198 C 155.981 92.722,156.786 92.672,157.292 92.084 C 158.302 90.910,156.710 89.320,155.503 90.297 M156.674 90.504 C 157.479 90.935,157.339 92.167,156.485 92.167 C 155.519 92.167,155.112 91.124,155.870 90.593 C 156.310 90.285,156.273 90.289,156.674 90.504 M240.200 94.700 C 239.631 95.269,240.203 96.500,241.037 96.500 C 241.802 96.500,242.283 95.307,241.738 94.762 C 241.429 94.453,240.485 94.415,240.200 94.700 M241.564 95.206 C 241.885 95.718,241.123 96.330,240.673 95.922 C 240.292 95.578,240.225 95.073,240.542 94.941 C 240.909 94.787,241.377 94.908,241.564 95.206 M161.385 102.945 C 160.035 103.225,159.485 105.410,160.502 106.450 C 162.153 108.138,164.860 106.315,163.947 104.130 C 163.564 103.213,162.488 102.716,161.385 102.945 M162.951 103.535 C 163.887 103.994,164.022 105.436,163.200 106.212 C 161.629 107.698,159.331 105.456,160.769 103.841 C 161.370 103.167,162.016 103.076,162.951 103.535 M233.374 107.875 C 232.707 108.709,233.158 109.833,234.161 109.833 C 235.176 109.833,235.758 108.615,235.071 107.929 C 234.758 107.615,233.611 107.579,233.374 107.875 M234.832 108.248 C 235.139 108.619,234.901 109.310,234.424 109.430 C 233.743 109.601,233.262 109.043,233.514 108.375 C 233.682 107.932,234.503 107.852,234.832 108.248 M170.503 114.019 C 168.996 114.621,169.164 116.533,170.759 116.934 C 172.364 117.337,173.094 114.725,171.556 114.083 C 171.228 113.946,170.950 113.838,170.938 113.844 C 170.926 113.850,170.731 113.929,170.503 114.019 M171.634 114.625 C 172.156 115.077,172.220 115.554,171.824 116.057 C 171.399 116.598,170.648 116.648,170.167 116.167 C 169.239 115.239,170.640 113.766,171.634 114.625 M223.473 116.181 C 223.035 116.349,222.500 117.208,222.500 117.742 C 222.500 119.542,225.264 119.976,225.829 118.264 C 226.292 116.860,224.903 115.633,223.473 116.181 M224.821 116.577 C 225.991 117.182,225.564 119.000,224.252 119.000 C 222.858 119.000,222.433 117.019,223.717 116.502 C 224.226 116.297,224.288 116.301,224.821 116.577 M183.749 121.185 C 183.363 121.373,182.833 122.223,182.833 122.655 C 182.833 124.163,184.765 124.927,185.846 123.846 C 187.201 122.492,185.499 120.334,183.749 121.185 M185.516 121.851 C 186.046 122.418,186.099 122.669,185.806 123.219 C 185.134 124.481,183.333 124.113,183.333 122.713 C 183.333 121.448,184.653 120.927,185.516 121.851 M209.233 122.733 C 207.795 124.172,209.354 126.553,211.224 125.772 C 213.193 124.949,212.737 122.167,210.633 122.167 C 209.908 122.167,209.727 122.240,209.233 122.733 M211.410 122.761 C 212.396 123.407,212.214 124.955,211.097 125.422 C 210.061 125.855,209.091 125.152,209.091 123.968 C 209.091 122.798,210.415 122.109,211.410 122.761 M197.060 125.077 C 195.750 125.994,196.399 128.170,197.981 128.164 C 199.291 128.159,199.833 127.654,199.833 126.438 C 199.833 125.134,198.154 124.310,197.060 125.077 M199.091 125.576 C 200.173 126.658,198.904 128.298,197.424 127.730 C 197.043 127.584,196.622 126.699,196.730 126.270 C 197.003 125.184,198.313 124.798,199.091 125.576 " stroke="none" fill="#bc1424" fill-rule="evenodd"></path><path id="path4" d="" stroke="none" fill="#d0501c" fill-rule="evenodd"></path></g></svg>